<svg width="126" height="168" viewBox="0 0 126 168" fill="none" xmlns="http://www.w3.org/2000/svg">
<g filter="url(#filter0_d_232_1250)">
<path fill-rule="evenodd" clip-rule="evenodd" d="M62.6688 110.324V70.8637H60.1731H57.6774C52.1987 70.8637 47.1461 72.711 43.0938 75.8241C37.28 80.2905 33.5252 87.3624 33.5252 95.3223L33.5252 95.9745L33.5252 112.694C35.6203 111.201 38.1749 110.324 40.9319 110.324H62.6688ZM55.5842 99.7248V95.4854C55.5842 93.6843 54.1424 92.2242 52.3639 92.2242C50.5854 92.2242 49.1436 93.6843 49.1436 95.4854V99.7248C49.1436 101.526 50.5854 102.986 52.3639 102.986C54.1424 102.986 55.5842 101.526 55.5842 99.7248Z" fill="#FFFAF5"/>
<path fill-rule="evenodd" clip-rule="evenodd" d="M62.6688 70.8637V110.324H84.4058C87.1627 110.324 89.7173 111.201 91.8124 112.694V95.9745C91.8124 94.3444 91.7499 92.7669 91.4794 91.2511C90.5898 85.8743 87.968 81.092 84.2149 77.5129C83.952 77.2622 83.6835 77.0174 83.4098 76.7788C83.0427 76.4628 82.6663 76.1591 82.2898 75.8596C78.2298 72.725 73.1597 70.8637 67.6603 70.8637H65.1646H62.6688ZM76.2746 99.7248V95.4854C76.2746 93.6843 74.8328 92.2242 73.0543 92.2242C71.2757 92.2242 69.834 93.6843 69.834 95.4854V99.7248C69.834 101.526 71.2757 102.986 73.0543 102.986C74.8328 102.986 76.2746 101.526 76.2746 99.7248Z" fill="#F5EBDC"/>
<path fill-rule="evenodd" clip-rule="evenodd" d="M62.6688 112.932V110.324H40.9319C38.1749 110.324 35.6203 111.201 33.5252 112.694C30.2141 115.055 28.0507 118.956 28.0507 123.368V126.955C28.0507 134.16 33.8178 140 40.9319 140H62.6688V112.932ZM45.2793 124.55C45.2793 126.374 46.7391 127.852 48.5398 127.852C50.3406 127.852 51.8004 126.374 51.8004 124.55C51.8004 122.727 50.3406 121.248 48.5398 121.248C46.7391 121.248 45.2793 122.727 45.2793 124.55Z" fill="#FF830D"/>
<path fill-rule="evenodd" clip-rule="evenodd" d="M62.6688 110.324V112.932V140H84.4058C91.5198 140 97.2869 134.16 97.2869 126.955V123.368C97.2869 118.956 95.1236 115.055 91.8124 112.694C89.7173 111.201 87.1627 110.324 84.4058 110.324H62.6688ZM73.5373 124.469C73.5373 126.292 74.9971 127.771 76.7978 127.771C78.5986 127.771 80.0584 126.292 80.0584 124.469C80.0584 122.645 78.5986 121.167 76.7978 121.167C74.9971 121.167 73.5373 122.645 73.5373 124.469Z" fill="#E15A1E"/>
<path d="M43.0938 75.8241C47.1461 72.711 52.1987 70.8637 57.6774 70.8637H60.1731C54.1351 70.0484 50.3512 64.5045 50.3512 59.8573C50.3512 57.5745 48.6606 56.5147 47.1309 56.5147C46.0038 56.5147 44.6879 57.4115 43.1861 58.9605C38.8387 63.4446 37.8726 67.521 37.8726 72.3372C39.8089 72.8347 41.2596 73.8263 43.0938 75.8241Z" fill="#444956"/>
<path d="M82.2898 75.8596C84.1323 73.8502 85.5944 72.8475 87.5456 72.3431C87.5456 66.7873 85.6134 62.3032 82.1516 58.9605C80.2999 57.1726 79.6559 56.5147 78.2067 56.5147C76.4356 56.5147 74.9864 57.9822 74.9864 59.8573C74.5839 65.6459 70.3975 70.1299 65.1646 70.8637H67.6603C73.1597 70.8637 78.2298 72.725 82.2898 75.8596Z" fill="#000032"/>
<path d="M23.3813 81.1363C23.1398 88.637 25.716 93.9363 33.5252 95.9745L33.5252 95.3223C33.5252 87.3624 37.28 80.2905 43.0938 75.8241C41.2596 73.8263 39.8089 72.8347 37.8726 72.3372C36.5015 71.985 34.8868 71.8805 32.7202 71.842C23.683 71.6815 23.6225 73.5762 23.3922 80.7953C23.3886 80.9077 23.385 81.0214 23.3813 81.1363Z" fill="#FF830D"/>
<path d="M91.8124 95.9745C99.6217 93.9363 102.278 88.6364 102.037 81.1357C101.795 73.6351 101.876 71.6784 92.698 71.8415C90.5358 71.8799 88.9194 71.988 87.5456 72.3431C85.5944 72.8475 84.1323 73.8502 82.2898 75.8596C82.6723 76.1548 83.0457 76.4614 83.4098 76.7788C83.6846 77.0154 83.9543 77.2589 84.2149 77.5129C87.968 81.092 90.5898 85.8743 91.4794 91.2511C91.7499 92.7669 91.8124 94.3444 91.8124 95.9745Z" fill="#E15A1E"/>
<path d="M55.5842 95.4854V99.7248C55.5842 101.526 54.1424 102.986 52.3639 102.986C50.5854 102.986 49.1436 101.526 49.1436 99.7248V95.4854C49.1436 93.6843 50.5854 92.2242 52.3639 92.2242C54.1424 92.2242 55.5842 93.6843 55.5842 95.4854Z" fill="#444956"/>
<path d="M76.2746 95.4854V99.7248C76.2746 101.526 74.8328 102.986 73.0543 102.986C71.2757 102.986 69.834 101.526 69.834 99.7248V95.4854C69.834 93.6843 71.2757 92.2242 73.0543 92.2242C74.8328 92.2242 76.2746 93.6843 76.2746 95.4854Z" fill="#000032"/>
<path d="M48.5398 127.852C46.7391 127.852 45.2793 126.374 45.2793 124.55C45.2793 122.727 46.7391 121.248 48.5398 121.248C50.3406 121.248 51.8004 122.727 51.8004 124.55C51.8004 126.374 50.3406 127.852 48.5398 127.852Z" fill="#E15A1E"/>
<path d="M76.7978 127.771C74.9971 127.771 73.5373 126.292 73.5373 124.469C73.5373 122.645 74.9971 121.167 76.7978 121.167C78.5986 121.167 80.0584 122.645 80.0584 124.469C80.0584 126.292 78.5986 127.771 76.7978 127.771Z" fill="#B92D28"/>
<path d="M57.5142 59.2866C57.5142 62.1684 59.821 64.5045 62.6667 64.5045V54.0688C59.821 54.0688 57.5142 56.4049 57.5142 59.2866Z" fill="#00DCE5"/>
<path d="M62.6667 64.5045C65.5123 64.5045 67.8191 62.1684 67.8191 59.2866C67.8191 56.4049 65.5123 54.0688 62.6667 54.0688V64.5045Z" fill="#00A2C5"/>
<path fill-rule="evenodd" clip-rule="evenodd" d="M105.333 40.0459C98.0553 23.5195 81.6894 12 62.6667 12V19.0115C78.8688 19.0115 92.808 28.8229 99.0069 42.8988L105.333 40.0459Z" fill="#00A2C5"/>
<path fill-rule="evenodd" clip-rule="evenodd" d="M62.6667 26.0229V33.0344C73.2276 33.0344 82.3135 39.4297 86.354 48.6047L92.6805 45.7517C87.5607 34.1263 76.0482 26.0229 62.6667 26.0229Z" fill="#00A2C5"/>
<path fill-rule="evenodd" clip-rule="evenodd" d="M80.0276 51.4576C77.0662 44.7331 70.4069 40.0459 62.6667 40.0459V47.0573C67.5863 47.0573 71.8189 50.0365 73.7012 54.3106L80.0276 51.4576Z" fill="#00A2C5"/>
<path d="M62.6667 12C43.6439 12 27.278 23.5195 20 40.0459L26.3264 42.8988C32.5253 28.8229 46.4646 19.0115 62.6667 19.0115V12Z" fill="#00DCE5"/>
<path d="M38.9793 48.6047C43.0199 39.4297 52.1058 33.0344 62.6667 33.0344V26.0229C49.2852 26.0229 37.7726 34.1263 32.6529 45.7517L38.9793 48.6047Z" fill="#00DCE5"/>
<path d="M45.3057 51.4576L51.6322 54.3106C53.5144 50.0365 57.747 47.0573 62.6667 47.0573V40.0459C54.9264 40.0459 48.2672 44.7331 45.3057 51.4576Z" fill="#00DCE5"/>
</g>
<defs>
<filter id="filter0_d_232_1250" x="0" y="0" width="125.333" height="168" filterUnits="userSpaceOnUse" color-interpolation-filters="sRGB">
<feFlood flood-opacity="0" result="BackgroundImageFix"/>
<feColorMatrix in="SourceAlpha" type="matrix" values="0 0 0 0 0 0 0 0 0 0 0 0 0 0 0 0 0 0 127 0" result="hardAlpha"/>
<feOffset dy="8"/>
<feGaussianBlur stdDeviation="10"/>
<feComposite in2="hardAlpha" operator="out"/>
<feColorMatrix type="matrix" values="0 0 0 0 0 0 0 0 0 0 0 0 0 0 0 0 0 0 0.5 0"/>
<feBlend mode="normal" in2="BackgroundImageFix" result="effect1_dropShadow_232_1250"/>
<feBlend mode="normal" in="SourceGraphic" in2="effect1_dropShadow_232_1250" result="shape"/>
</filter>
</defs>
</svg>
